<svg width="17" height="18" viewBox="0 0 17 18" fill="none" xmlns="http://www.w3.org/2000/svg">
<path d="M15.3824 2.125H9.13245V0.875C9.13245 0.70924 9.0666 0.550269 8.94939 0.433058C8.83218 0.315848 8.67321 0.25 8.50745 0.25C8.34169 0.25 8.18271 0.315848 8.0655 0.433058C7.94829 0.550269 7.88245 0.70924 7.88245 0.875V2.125H1.63245C1.30093 2.125 0.982983 2.2567 0.748563 2.49112C0.514142 2.72554 0.382446 3.04348 0.382446 3.375V12.75C0.382446 13.0815 0.514142 13.3995 0.748563 13.6339C0.982983 13.8683 1.30093 14 1.63245 14H4.70745L3.01917 16.1094C2.91556 16.2389 2.86765 16.4042 2.88597 16.5691C2.90428 16.7339 2.98732 16.8847 3.11682 16.9883C3.24632 17.0919 3.41167 17.1398 3.5765 17.1215C3.74133 17.1032 3.89213 17.0201 3.99573 16.8906L6.30745 14H10.7074L13.0192 16.8906C13.0705 16.9547 13.1339 17.0081 13.2058 17.0477C13.2778 17.0874 13.3568 17.1124 13.4384 17.1215C13.52 17.1306 13.6026 17.1235 13.6815 17.1006C13.7604 17.0777 13.8339 17.0396 13.8981 16.9883C13.9622 16.937 14.0156 16.8736 14.0552 16.8016C14.0948 16.7297 14.1199 16.6507 14.1289 16.5691C14.138 16.4874 14.1309 16.4048 14.108 16.326C14.0852 16.2471 14.047 16.1735 13.9957 16.1094L12.3074 14H15.3824C15.714 14 16.0319 13.8683 16.2663 13.6339C16.5007 13.3995 16.6324 13.0815 16.6324 12.75V3.375C16.6324 3.04348 16.5007 2.72554 16.2663 2.49112C16.0319 2.2567 15.714 2.125 15.3824 2.125ZM15.3824 12.75H1.63245V3.375H15.3824V12.75ZM6.63245 8.375V10.25C6.63245 10.4158 6.5666 10.5747 6.44939 10.6919C6.33218 10.8092 6.17321 10.875 6.00745 10.875C5.84169 10.875 5.68271 10.8092 5.5655 10.6919C5.44829 10.5747 5.38245 10.4158 5.38245 10.25V8.375C5.38245 8.20924 5.44829 8.05027 5.5655 7.93306C5.68271 7.81585 5.84169 7.75 6.00745 7.75C6.17321 7.75 6.33218 7.81585 6.44939 7.93306C6.5666 8.05027 6.63245 8.20924 6.63245 8.375ZM9.13245 7.125V10.25C9.13245 10.4158 9.0666 10.5747 8.94939 10.6919C8.83218 10.8092 8.67321 10.875 8.50745 10.875C8.34169 10.875 8.18271 10.8092 8.0655 10.6919C7.94829 10.5747 7.88245 10.4158 7.88245 10.25V7.125C7.88245 6.95924 7.94829 6.80027 8.0655 6.68306C8.18271 6.56585 8.34169 6.5 8.50745 6.5C8.67321 6.5 8.83218 6.56585 8.94939 6.68306C9.0666 6.80027 9.13245 6.95924 9.13245 7.125ZM11.6324 5.875V10.25C11.6324 10.4158 11.5666 10.5747 11.4494 10.6919C11.3322 10.8092 11.1732 10.875 11.0074 10.875C10.8417 10.875 10.6827 10.8092 10.5655 10.6919C10.4483 10.5747 10.3824 10.4158 10.3824 10.25V5.875C10.3824 5.70924 10.4483 5.55027 10.5655 5.43306C10.6827 5.31585 10.8417 5.25 11.0074 5.25C11.1732 5.25 11.3322 5.31585 11.4494 5.43306C11.5666 5.55027 11.6324 5.70924 11.6324 5.875Z" fill="#7E8986"/>
</svg>
