<svg width="19" height="17" viewBox="0 0 19 17" fill="none" xmlns="http://www.w3.org/2000/svg">
<path d="M18.2574 15.25H17.0074V9.625L17.1903 9.80781C17.3077 9.92509 17.467 9.99089 17.633 9.99074C17.799 9.9906 17.9581 9.92451 18.0754 9.80703C18.1927 9.68955 18.2585 9.53029 18.2583 9.36429C18.2582 9.19829 18.1921 9.03915 18.0746 8.92188L10.391 1.24062C10.1566 1.00638 9.83883 0.874798 9.50745 0.874798C9.17607 0.874798 8.85825 1.00638 8.62385 1.24062L0.940259 8.92188C0.823087 9.03915 0.757302 9.19817 0.757375 9.36395C0.757448 9.52973 0.823374 9.68869 0.940649 9.80586C1.05792 9.92303 1.21694 9.98882 1.38272 9.98874C1.5485 9.98867 1.70746 9.92274 1.82463 9.80547L2.00745 9.625V15.25H0.757446C0.591686 15.25 0.432715 15.3158 0.315505 15.4331C0.198294 15.5503 0.132446 15.7092 0.132446 15.875C0.132446 16.0408 0.198294 16.1997 0.315505 16.3169C0.432715 16.4342 0.591686 16.5 0.757446 16.5H18.2574C18.4232 16.5 18.5822 16.4342 18.6994 16.3169C18.8166 16.1997 18.8824 16.0408 18.8824 15.875C18.8824 15.7092 18.8166 15.5503 18.6994 15.4331C18.5822 15.3158 18.4232 15.25 18.2574 15.25ZM3.25745 8.375L9.50745 2.125L15.7574 8.375V15.25H12.0074V10.875C12.0074 10.7092 11.9416 10.5503 11.8244 10.4331C11.7072 10.3158 11.5482 10.25 11.3824 10.25H7.63245C7.46669 10.25 7.30771 10.3158 7.1905 10.4331C7.07329 10.5503 7.00745 10.7092 7.00745 10.875V15.25H3.25745V8.375ZM10.7574 15.25H8.25745V11.5H10.7574V15.25Z" fill="#7E8986"/>
</svg>
